<?xml version="1.0" encoding="UTF-8"?>
<svg width="20px" height="20px" viewBox="0 0 31 30" version="1.1" xmlns="http://www.w3.org/2000/svg" xmlns:xlink="http://www.w3.org/1999/xlink">
    <title>Icon/Github</title>
    <g id="Symbols" stroke="none" stroke-width="1" fill="none" fill-rule="evenodd">
        <g id="Icon/Github" fill="#FFFFFF" fill-rule="nonzero">
            <path d="M10.2830579,24.1363636 C10.2830579,24.2603306 10.1404959,24.3595041 9.9607438,24.3595041 C9.75619835,24.3780992 9.61363636,24.2789256 9.61363636,24.1363636 C9.61363636,24.0123967 9.75619835,23.9132231 9.93595041,23.9132231 C10.1219008,23.8946281 10.2830579,23.9938017 10.2830579,24.1363636 Z M8.3553719,23.857438 C8.31198347,23.981405 8.43595041,24.1239669 8.62190083,24.161157 C8.78305785,24.2231405 8.96900826,24.161157 9.00619835,24.0371901 C9.04338843,23.9132231 8.92561983,23.7706612 8.73966942,23.714876 C8.5785124,23.6714876 8.39876033,23.7334711 8.3553719,23.857438 Z M11.0950413,23.7520661 C10.9152893,23.7954545 10.7913223,23.9132231 10.8099174,24.0557851 C10.8285124,24.1797521 10.9896694,24.2603306 11.1756198,24.2169421 C11.3553719,24.1735537 11.4793388,24.0557851 11.4607438,23.9318182 C11.4421488,23.8140496 11.2747934,23.7334711 11.0950413,23.7520661 Z M15.1735537,2.30926389e-14 C6.57644628,2.30926389e-14 -1.77635684e-15,6.5268595 -1.77635684e-15,15.1239669 C-1.77635684e-15,21.9979339 4.32644628,27.8801653 10.5061983,29.9504132 C11.2995868,30.0929752 11.5785124,29.6033058 11.5785124,29.2004132 C11.5785124,28.8161157 11.5599174,26.696281 11.5599174,25.3946281 C11.5599174,25.3946281 7.22107438,26.3243802 6.30991736,23.5475207 C6.30991736,23.5475207 5.60330579,21.7438017 4.58677686,21.2789256 C4.58677686,21.2789256 3.16735537,20.3057851 4.68595041,20.3243802 C4.68595041,20.3243802 6.22933884,20.4483471 7.0785124,21.9235537 C8.43595041,24.3161157 10.7107438,23.6280992 11.5971074,23.2190083 C11.7396694,22.2272727 12.142562,21.5392562 12.588843,21.1301653 C9.12396694,20.7458678 5.62809917,20.2438017 5.62809917,14.2809917 C5.62809917,12.5764463 6.09917355,11.7210744 7.09090909,10.6301653 C6.92975207,10.2272727 6.40289256,8.5661157 7.25206612,6.4214876 C8.54752066,6.01859504 11.5289256,8.09504132 11.5289256,8.09504132 C12.768595,7.74793388 14.1012397,7.56818182 15.4214876,7.56818182 C16.7417355,7.56818182 18.0743802,7.74793388 19.3140496,8.09504132 C19.3140496,8.09504132 22.2954545,6.01239669 23.5909091,6.4214876 C24.4400826,8.57231405 23.9132231,10.2272727 23.7520661,10.6301653 C24.7438017,11.7272727 25.3512397,12.5826446 25.3512397,14.2809917 C25.3512397,20.2623967 21.7004132,20.7396694 18.2355372,21.1301653 C18.8057851,21.6198347 19.2892562,22.5495868 19.2892562,24.0061983 C19.2892562,26.0950413 19.2706612,28.6797521 19.2706612,29.1880165 C19.2706612,29.5909091 19.5557851,30.0805785 20.3429752,29.9380165 C26.5413223,27.8801653 30.7438017,21.9979339 30.7438017,15.1239669 C30.7438017,6.5268595 23.7706612,2.30926389e-14 15.1735537,2.30926389e-14 Z M6.02479339,21.3780992 C5.94421488,21.4400826 5.96280992,21.5826446 6.06818182,21.7004132 C6.16735537,21.7995868 6.30991736,21.8429752 6.39049587,21.7623967 C6.47107438,21.7004132 6.45247934,21.5578512 6.34710744,21.4400826 C6.24793388,21.3409091 6.1053719,21.2975207 6.02479339,21.3780992 Z M5.3553719,20.8760331 C5.31198347,20.9566116 5.37396694,21.0557851 5.49793388,21.1177686 C5.59710744,21.1797521 5.72107438,21.161157 5.76446281,21.0743802 C5.80785124,20.9938017 5.74586777,20.8946281 5.62190083,20.8326446 C5.49793388,20.7954545 5.39876033,20.8140496 5.3553719,20.8760331 Z M7.36363636,23.0826446 C7.26446281,23.1632231 7.30165289,23.3491736 7.44421488,23.4669421 C7.58677686,23.6095041 7.76652893,23.6280992 7.84710744,23.5289256 C7.92768595,23.4483471 7.89049587,23.2623967 7.76652893,23.1446281 C7.63016529,23.0020661 7.44421488,22.9834711 7.36363636,23.0826446 Z M6.65702479,22.1714876 C6.55785124,22.2334711 6.55785124,22.3946281 6.65702479,22.5371901 C6.75619835,22.6797521 6.92355372,22.7417355 7.00413223,22.6797521 C7.10330579,22.5991736 7.10330579,22.4380165 7.00413223,22.2954545 C6.91735537,22.1528926 6.75619835,22.0909091 6.65702479,22.1714876 Z" id="Shape"></path>
        </g>
    </g>
</svg>